<?xml version="1.0"?>
<svg width="154" height="28" xmlns="http://www.w3.org/2000/svg">

 <g>
  <title>background</title>
  <rect fill="none" id="canvas_background" height="30" width="156" y="-1" x="-1"/>
 </g>
 <g>
  <title>Layer 1</title>
  <g stroke="null" id="svg_38">
   <g stroke="null" id="svg_39">
    <path stroke="null" id="svg_40" d="m27.111242,13.510182l-9.917057,0c-1.120844,0 -2.429033,-1.348515 -2.429033,-2.504128l0,-10.225028l9.917049,0c1.120865,0 2.429041,1.348545 2.429041,2.504127l0,10.225029z" fill="#F7941E"/>
    <path stroke="null" id="svg_41" d="m12.912519,0.781433l0,10.225026c0,1.155584 -1.308185,2.504536 -2.429034,2.504536l-9.917454,0l0,-10.22584c0,-1.155582 1.308183,-2.504127 2.429035,-2.504127l9.917453,0l0,0.000406z" fill="#F15A29"/>
    <path stroke="null" id="svg_42" d="m0.566024,15.226221l9.917063,0c1.120842,0 2.429026,1.348921 2.429026,2.504501l0,10.225462l-9.917454,0c-1.120851,0 -2.428636,-1.348919 -2.428636,-2.50453l0,-10.225433z" fill="#EF4136"/>
   </g>
   <g stroke="null" id="svg_43">
    <path stroke="null" id="svg_44" d="m30.647144,1.153332l5.162846,0c2.960297,0 4.957123,0.129776 5.990894,0.389046c1.480354,0.365871 2.689877,1.117634 3.629776,2.255664c0.939491,1.138436 1.409637,2.568438 1.409637,4.29007c0,1.733998 -0.458149,3.164 -1.374481,4.290443c-0.915947,1.126442 -2.178974,1.884202 -3.788349,2.273248c-1.174774,0.283196 -3.37133,0.424621 -6.590069,0.424621l-1.85025,0l0,12.101234l-2.590004,0l0,-26.024326zm2.590004,2.547667l0,8.82857l4.387531,0.053098c1.77354,0 3.071739,-0.161759 3.894199,-0.485308c0.822052,-0.323956 1.468372,-0.847651 1.93811,-1.571836c0.469753,-0.723807 0.705036,-1.533072 0.705036,-2.427824c0,-0.870795 -0.234875,-1.668096 -0.705036,-2.39231s-1.089684,-1.239072 -1.85862,-1.545036c-0.769726,-0.305965 -2.029594,-0.458979 -3.779556,-0.458979l-4.581665,0l0,-0.000375z" fill="#FFFFFF"/>
    <path stroke="null" id="svg_45" d="m68.008995,7.929538l0,19.248525l-2.431458,0l0,-3.308239c-1.033752,1.262281 -2.193748,2.211346 -3.479977,2.848452s-2.69305,0.955496 -4.219757,0.955496c-2.713425,0 -5.030621,-0.987825 -6.95116,-2.963104s-2.880802,-4.379116 -2.880802,-7.209602c0,-2.771739 0.969055,-5.142468 2.907574,-7.112157c1.93811,-1.969657 4.269684,-2.954298 6.995098,-2.954298c1.573822,0 2.998249,0.335949 4.272884,1.008223c1.274235,0.672241 2.393089,1.680871 3.356552,3.025417l0,-3.538336l2.431046,0l0,-0.000375zm-9.85836,1.892946c-1.372913,0 -2.639935,0.338761 -3.801525,1.016219c-1.161991,0.677426 -2.085911,1.628961 -2.772167,2.854038c-0.686249,1.224705 -1.029381,2.521307 -1.029381,3.887405c0,1.355322 0.345943,2.651144 1.038177,3.887434c0.69223,1.237476 1.622135,2.200132 2.789326,2.889179c1.167194,0.689857 2.420258,1.034176 3.757996,1.034176c1.349331,0 2.628345,-0.341541 3.836681,-1.024996s2.138245,-1.607752 2.789345,-2.774141c0.651093,-1.166391 0.976646,-2.480173 0.976646,-3.940939c0,-2.226118 -0.730186,-4.087957 -2.190968,-5.584267c-1.460766,-1.495936 -3.258686,-2.244109 -5.394131,-2.244109z" fill="#FFFFFF"/>
    <path stroke="null" id="svg_46" d="m70.853035,7.929538l2.466583,0l0,3.450007c0.987038,-1.320965 2.079521,-2.308792 3.277458,-2.963481c1.198341,-0.654314 2.502144,-0.981862 3.911781,-0.981862c1.43322,0 2.704651,0.365527 3.814713,1.096896c1.110077,0.731398 1.929733,1.716041 2.458199,2.954299s0.792511,3.166812 0.792511,5.785192l0,9.907473l-2.466988,0l0,-9.181698c0,-2.217308 -0.091484,-3.697658 -0.274406,-4.440614c-0.286011,-1.273834 -0.83445,-2.232114 -1.644936,-2.875245c-0.810081,-0.642696 -1.867813,-0.964247 -3.171608,-0.964247c-1.49192,0 -2.82888,0.495304 -4.009232,1.48594c-1.180771,0.990608 -1.95929,2.217715 -2.335175,3.680107c-0.235283,0.955064 -0.352707,2.701058 -0.352707,5.236323l0,7.059029l-2.466599,0l0,-19.24812l0.000404,0z" fill="#FFFFFF"/>
    <path stroke="null" id="svg_47" d="m109.254631,7.929538l0,19.248525l-2.431427,0l0,-3.308239c-1.033775,1.262281 -2.193756,2.211346 -3.479988,2.848452c-1.286613,0.637135 -2.693054,0.955496 -4.220154,0.955496c-2.71344,0 -5.030624,-0.987825 -6.950775,-2.963104c-1.920921,-1.975248 -2.881203,-4.379116 -2.881203,-7.209602c0,-2.771739 0.969475,-5.142468 2.907173,-7.112157c1.938507,-1.969657 4.269691,-2.954298 6.995499,-2.954298c1.573837,0 2.99826,0.335949 4.272888,1.008223c1.274246,0.672241 2.393097,1.680871 3.35656,3.025417l0,-3.538336l2.431427,0l0,-0.000375zm-9.858742,1.892946c-1.37291,0 -2.639549,0.338761 -3.801529,1.016219c-1.161583,0.677426 -2.085922,1.628961 -2.772156,2.854038c-0.686256,1.224705 -1.029388,2.521307 -1.029388,3.887405c0,1.355322 0.346336,2.651144 1.038567,3.887434c0.691841,1.237476 1.622154,2.200132 2.789337,2.889179c1.16758,0.689857 2.42025,1.034176 3.757591,1.034176c1.349335,0 2.628365,-0.341541 3.836685,-1.024996s2.138245,-1.607752 2.789337,-2.774141c0.651123,-1.166391 0.976639,-2.480173 0.976639,-3.940939c0,-2.226118 -0.730186,-4.087957 -2.190948,-5.584267c-1.460381,-1.495936 -3.258301,-2.244109 -5.394135,-2.244109z" fill="#FFFFFF"/>
    <path stroke="null" id="svg_48" d="m131.234177,0.499018l0,26.679453l-2.431839,0l0,-3.308237c-1.033768,1.262276 -2.193756,2.211338 -3.479973,2.848446s-2.693062,0.955469 -4.219742,0.955469c-2.713844,0 -5.030655,-0.987829 -6.951195,-2.963078s-2.880806,-4.379145 -2.880806,-7.209635c0,-2.771736 0.969048,-5.142435 2.907181,-7.112123c1.938118,-1.969656 4.269691,-2.954329 6.995094,-2.954329c1.573845,0 2.99826,0.335948 4.272888,1.008223c1.274246,0.672273 2.393494,1.680902 3.356552,3.025418l0,-10.968795l2.431839,0l0,-0.000812zm-9.858337,9.323466c-1.372902,0 -2.639969,0.338761 -3.801941,1.016219c-1.161598,0.677426 -2.085915,1.628961 -2.771744,2.854038c-0.686668,1.224705 -1.029396,2.521307 -1.029396,3.887405c0,1.355322 0.345932,2.651144 1.038177,3.887434c0.692245,1.237476 1.622543,2.200132 2.789337,2.889179c1.167595,0.689857 2.420235,1.034176 3.757973,1.034176c1.349342,0 2.627975,-0.341541 3.8367,-1.024996c1.207916,-0.683456 2.138245,-1.607752 2.789322,-2.774141c0.651123,-1.166391 0.976624,-2.480173 0.976624,-3.940939c0,-2.226118 -0.73056,-4.087957 -2.191345,-5.584267c-1.460754,-1.495936 -3.258675,-2.244109 -5.393707,-2.244109z" fill="#FFFFFF"/>
    <path stroke="null" id="svg_49" d="m153.21373,7.929538l0,19.248525l-2.431427,0l0,-3.308239c-1.033783,1.262281 -2.193787,2.211346 -3.480011,2.848452c-1.286621,0.637135 -2.693054,0.955496 -4.220139,0.955496c-2.713455,0 -5.030624,-0.987825 -6.95079,-2.963104c-1.920929,-1.975248 -2.88118,-4.379116 -2.88118,-7.209602c0,-2.771739 0.969452,-5.142468 2.907181,-7.112157c1.938507,-1.969657 4.269653,-2.954298 6.995483,-2.954298c1.573822,0 2.99826,0.335949 4.272888,1.008223c1.274216,0.672241 2.393082,1.680871 3.356567,3.025417l0,-3.538336l2.431427,0l0,-0.000375zm-9.858749,1.892946c-1.372894,0 -2.639542,0.338761 -3.801544,1.016219c-1.161575,0.677426 -2.085907,1.628961 -2.772156,2.854038c-0.686234,1.224705 -1.029373,2.521307 -1.029373,3.887405c0,1.355322 0.346344,2.651144 1.038574,3.887434c0.691833,1.237476 1.622162,2.200132 2.789322,2.889179c1.167587,0.689857 2.420258,1.034176 3.757584,1.034176c1.349365,0 2.628372,-0.341541 3.8367,-1.024996s2.138245,-1.607752 2.789337,-2.774141c0.651093,-1.166391 0.976639,-2.480173 0.976639,-3.940939c0,-2.226118 -0.730194,-4.087957 -2.190948,-5.584267c-1.460373,-1.495936 -3.258316,-2.244109 -5.394135,-2.244109z" fill="#FFFFFF"/>
   </g>
  </g>
 </g>
</svg>